<svg width="156" height="68" viewBox="0 0 156 68" fill="none" xmlns="http://www.w3.org/2000/svg">
<path d="M4.572 10.4H0.432V6.8H12.672V10.4H8.532V32H4.572V10.4ZM20.1727 32.36C18.2287 32.36 16.7407 31.808 15.7087 30.704C14.6767 29.6 14.1607 28.04 14.1607 26.024V12.776C14.1607 10.76 14.6767 9.2 15.7087 8.096C16.7407 6.992 18.2287 6.44 20.1727 6.44C22.1167 6.44 23.6047 6.992 24.6367 8.096C25.6687 9.2 26.1847 10.76 26.1847 12.776V26.024C26.1847 28.04 25.6687 29.6 24.6367 30.704C23.6047 31.808 22.1167 32.36 20.1727 32.36ZM20.1727 28.76C21.5407 28.76 22.2247 27.932 22.2247 26.276V12.524C22.2247 10.868 21.5407 10.04 20.1727 10.04C18.8047 10.04 18.1207 10.868 18.1207 12.524V26.276C18.1207 27.932 18.8047 28.76 20.1727 28.76ZM28.8627 6.8H32.8227V28.4H39.3387V32H28.8627V6.8ZM41.2377 6.8H52.0377V10.4H45.1977V17.06H50.6337V20.66H45.1977V28.4H52.0377V32H41.2377V6.8ZM60.0758 32.36C58.1558 32.36 56.6918 31.82 55.6838 30.74C54.6758 29.636 54.1718 28.064 54.1718 26.024V6.8H58.1318V26.312C58.1318 27.176 58.2998 27.8 58.6358 28.184C58.9958 28.568 59.4998 28.76 60.1478 28.76C60.7958 28.76 61.2878 28.568 61.6238 28.184C61.9838 27.8 62.1638 27.176 62.1638 26.312V6.8H65.9798V26.024C65.9798 28.064 65.4758 29.636 64.4678 30.74C63.4598 31.82 61.9958 32.36 60.0758 32.36ZM68.8002 6.8H72.7602V17.42L77.8002 6.8H81.7602L77.0442 16.052L81.8322 32H77.6922L74.3442 20.768L72.7602 23.972V32H68.8002V6.8ZM83.7065 6.8H87.6665V17.06H91.9145V6.8H95.8745V32H91.9145V20.66H87.6665V32H83.7065V6.8ZM101.884 6.8H107.248L111.352 32H107.392L106.672 26.996V27.068H102.172L101.452 32H97.7797L101.884 6.8ZM106.204 23.648L104.44 11.192H104.368L102.64 23.648H106.204ZM113.273 6.8H118.241L122.093 21.884H122.165V6.8H125.693V32H121.625L116.873 13.604H116.801V32H113.273V6.8ZM134.36 32.36C132.416 32.36 130.928 31.808 129.896 30.704C128.864 29.6 128.348 28.04 128.348 26.024V12.776C128.348 10.76 128.864 9.2 129.896 8.096C130.928 6.992 132.416 6.44 134.36 6.44C136.304 6.44 137.792 6.992 138.824 8.096C139.856 9.2 140.372 10.76 140.372 12.776V26.024C140.372 28.04 139.856 29.6 138.824 30.704C137.792 31.808 136.304 32.36 134.36 32.36ZM134.36 28.76C135.728 28.76 136.412 27.932 136.412 26.276V12.524C136.412 10.868 135.728 10.04 134.36 10.04C132.992 10.04 132.308 10.868 132.308 12.524V26.276C132.308 27.932 132.992 28.76 134.36 28.76ZM141.936 6.8H145.932L148.524 26.348H148.596L151.188 6.8H154.824L151.008 32H145.752L141.936 6.8Z" fill="black"/>
<path d="M4.572 57.6H0.432V61.2H12.672V57.6H8.532V36H4.572V57.6ZM20.1727 35.64C18.2287 35.64 16.7407 36.192 15.7087 37.296C14.6767 38.4 14.1607 39.96 14.1607 41.976V55.224C14.1607 57.24 14.6767 58.8 15.7087 59.904C16.7407 61.008 18.2287 61.56 20.1727 61.56C22.1167 61.56 23.6047 61.008 24.6367 59.904C25.6687 58.8 26.1847 57.24 26.1847 55.224V41.976C26.1847 39.96 25.6687 38.4 24.6367 37.296C23.6047 36.192 22.1167 35.64 20.1727 35.64ZM20.1727 39.24C21.5407 39.24 22.2247 40.068 22.2247 41.724V55.476C22.2247 57.132 21.5407 57.96 20.1727 57.96C18.8047 57.96 18.1207 57.132 18.1207 55.476V41.724C18.1207 40.068 18.8047 39.24 20.1727 39.24ZM28.8627 61.2H32.8227V39.6H39.3387V36H28.8627V61.2ZM41.2377 61.2H52.0377V57.6H45.1977V50.94H50.6337V47.34H45.1977V39.6H52.0377V36H41.2377V61.2ZM60.0758 35.64C58.1558 35.64 56.6918 36.18 55.6838 37.26C54.6758 38.364 54.1718 39.936 54.1718 41.976V61.2H58.1318V41.688C58.1318 40.824 58.2998 40.2 58.6358 39.816C58.9958 39.432 59.4998 39.24 60.1478 39.24C60.7958 39.24 61.2878 39.432 61.6238 39.816C61.9838 40.2 62.1638 40.824 62.1638 41.688V61.2H65.9798V41.976C65.9798 39.936 65.4758 38.364 64.4678 37.26C63.4598 36.18 61.9958 35.64 60.0758 35.64ZM68.8002 61.2H72.7602V50.58L77.8002 61.2H81.7602L77.0442 51.948L81.8322 36H77.6922L74.3442 47.232L72.7602 44.028V36H68.8002V61.2ZM83.7065 61.2H87.6665V50.94H91.9145V61.2H95.8745V36H91.9145V47.34H87.6665V36H83.7065V61.2ZM101.884 61.2H107.248L111.352 36H107.392L106.672 41.004V40.932H102.172L101.452 36H97.7797L101.884 61.2ZM106.204 44.352L104.44 56.808H104.368L102.64 44.352H106.204ZM113.273 61.2H118.241L122.093 46.116H122.165V61.2H125.693V36H121.625L116.873 54.396H116.801V36H113.273V61.2ZM134.36 35.64C132.416 35.64 130.928 36.192 129.896 37.296C128.864 38.4 128.348 39.96 128.348 41.976V55.224C128.348 57.24 128.864 58.8 129.896 59.904C130.928 61.008 132.416 61.56 134.36 61.56C136.304 61.56 137.792 61.008 138.824 59.904C139.856 58.8 140.372 57.24 140.372 55.224V41.976C140.372 39.96 139.856 38.4 138.824 37.296C137.792 36.192 136.304 35.64 134.36 35.64ZM134.36 39.24C135.728 39.24 136.412 40.068 136.412 41.724V55.476C136.412 57.132 135.728 57.96 134.36 57.96C132.992 57.96 132.308 57.132 132.308 55.476V41.724C132.308 40.068 132.992 39.24 134.36 39.24ZM141.936 61.2H145.932L148.524 41.652H148.596L151.188 61.2H154.824L151.008 36H145.752L141.936 61.2Z" fill="url(#paint0_linear_7175_12)"/>
<defs>
<linearGradient id="paint0_linear_7175_12" x1="85" y1="68" x2="85" y2="36" gradientUnits="userSpaceOnUse">
<stop stop-color="#969696" stop-opacity="0"/>
<stop offset="1" stop-color="#7B7B7B"/>
</linearGradient>
</defs>
</svg>
