<svg width="27" height="27" viewBox="0 0 27 27" fill="none" xmlns="http://www.w3.org/2000/svg">
<rect y="0.166992" width="26.5051" height="26.5051" rx="4.24082" fill="#7A84DD"/>
<g filter="url(#filter0_d_12_21856)">
<mask id="path-2-outside-1_12_21856" maskUnits="userSpaceOnUse" x="4.30078" y="4.46802" width="18" height="17" fill="black">
<rect fill="white" x="4.30078" y="4.46802" width="18" height="17"/>
<path fill-rule="evenodd" clip-rule="evenodd" d="M12.5084 5.67576C12.5792 5.5473 12.7109 5.46802 12.8536 5.46802C13.6222 5.46802 14.3165 5.86184 14.8101 6.39589C15.3014 6.92753 15.6362 7.64361 15.6362 8.35411V10.4115L17.4448 10.3929L19.2535 10.3744C19.3552 10.3744 19.4607 10.3847 19.5396 10.3929C19.5449 10.3935 19.5503 10.3941 19.5557 10.3949C20.5689 10.5436 21.3532 11.4269 21.1797 12.4728L20.1225 18.7796C19.9721 19.701 19.1119 20.3197 18.1942 20.3108H9.67344C9.6504 20.3108 9.62783 20.3087 9.60586 20.3048C9.5839 20.3087 9.56132 20.3108 9.53829 20.3108H7.28835C6.15726 20.3108 5.30078 19.2694 5.30078 18.0679V13.4831C5.30078 12.2815 6.15726 11.2402 7.28835 11.2402H9.44275L12.5084 5.67576ZM10.071 11.762L13.0751 6.30926C13.501 6.37289 13.9113 6.61499 14.2362 6.96652C14.6193 7.38111 14.8411 7.90193 14.8411 8.35411V10.8279C14.8411 10.938 14.8836 11.0434 14.959 11.1209C15.0344 11.1983 15.1365 11.2413 15.2426 11.2402L19.2535 11.199L19.2553 11.199C19.3103 11.1991 19.3762 11.2048 19.452 11.2125C20.1189 11.3141 20.4765 11.8464 20.3963 12.3323M20.3963 12.3323L19.3389 18.6404L19.3386 18.6425C19.266 19.0886 18.8078 19.4928 18.2003 19.4862L10.071 19.4862V11.762M9.27593 19.4862V12.0648H7.28835C6.67038 12.0648 6.09581 12.6562 6.09581 13.4831V18.0679C6.09581 18.8948 6.67038 19.4862 7.28835 19.4862H9.27593Z"/>
</mask>
<path fill-rule="evenodd" clip-rule="evenodd" d="M12.5084 5.67576C12.5792 5.5473 12.7109 5.46802 12.8536 5.46802C13.6222 5.46802 14.3165 5.86184 14.8101 6.39589C15.3014 6.92753 15.6362 7.64361 15.6362 8.35411V10.4115L17.4448 10.3929L19.2535 10.3744C19.3552 10.3744 19.4607 10.3847 19.5396 10.3929C19.5449 10.3935 19.5503 10.3941 19.5557 10.3949C20.5689 10.5436 21.3532 11.4269 21.1797 12.4728L20.1225 18.7796C19.9721 19.701 19.1119 20.3197 18.1942 20.3108H9.67344C9.6504 20.3108 9.62783 20.3087 9.60586 20.3048C9.5839 20.3087 9.56132 20.3108 9.53829 20.3108H7.28835C6.15726 20.3108 5.30078 19.2694 5.30078 18.0679V13.4831C5.30078 12.2815 6.15726 11.2402 7.28835 11.2402H9.44275L12.5084 5.67576ZM10.071 11.762L13.0751 6.30926C13.501 6.37289 13.9113 6.61499 14.2362 6.96652C14.6193 7.38111 14.8411 7.90193 14.8411 8.35411V10.8279C14.8411 10.938 14.8836 11.0434 14.959 11.1209C15.0344 11.1983 15.1365 11.2413 15.2426 11.2402L19.2535 11.199L19.2553 11.199C19.3103 11.1991 19.3762 11.2048 19.452 11.2125C20.1189 11.3141 20.4765 11.8464 20.3963 12.3323M20.3963 12.3323L19.3389 18.6404L19.3386 18.6425C19.266 19.0886 18.8078 19.4928 18.2003 19.4862L10.071 19.4862V11.762M9.27593 19.4862V12.0648H7.28835C6.67038 12.0648 6.09581 12.6562 6.09581 13.4831V18.0679C6.09581 18.8948 6.67038 19.4862 7.28835 19.4862H9.27593Z" fill="white"/>
<path d="M12.5084 5.67576L12.8799 5.8804L12.8799 5.8804L12.5084 5.67576ZM14.8101 6.39589L15.1215 6.10805V6.10805L14.8101 6.39589ZM15.6362 10.4115H15.2121C15.2121 10.5247 15.2574 10.6333 15.3378 10.7129C15.4183 10.7926 15.5273 10.8367 15.6405 10.8356L15.6362 10.4115ZM19.2535 10.3744L19.2536 9.95025L19.2492 9.95029L19.2535 10.3744ZM19.5396 10.3929L19.5833 9.97109L19.5833 9.97109L19.5396 10.3929ZM19.5557 10.3949L19.4941 10.8145L19.4941 10.8145L19.5557 10.3949ZM21.1797 12.4728L21.5979 12.5429L21.5981 12.5422L21.1797 12.4728ZM20.1225 18.7796L19.7043 18.7095L19.704 18.7113L20.1225 18.7796ZM18.1942 20.3108L18.1983 19.8867H18.1942V20.3108ZM9.60586 20.3048L9.68002 19.8873C9.63096 19.8786 9.58076 19.8786 9.53171 19.8873L9.60586 20.3048ZM9.44275 11.2402V11.6643C9.5973 11.6643 9.73962 11.5802 9.81419 11.4448L9.44275 11.2402ZM10.071 11.762L9.69952 11.5574C9.66498 11.62 9.64687 11.6904 9.64687 11.762H10.071ZM13.0751 6.30926L13.1377 5.88983C12.9624 5.86363 12.7892 5.94931 12.7036 6.10462L13.0751 6.30926ZM14.2362 6.96652L13.9247 7.25436L13.9247 7.25436L14.2362 6.96652ZM14.959 11.1209L14.6551 11.4167L14.6551 11.4167L14.959 11.1209ZM15.2426 11.2402L15.2469 11.6642H15.2469L15.2426 11.2402ZM19.2535 11.199L19.2539 10.7749L19.2492 10.7749L19.2535 11.199ZM19.2553 11.199L19.2563 10.7749L19.2557 10.7749L19.2553 11.199ZM19.452 11.2125L19.5158 10.7933C19.509 10.7923 19.5021 10.7914 19.4953 10.7907L19.452 11.2125ZM20.3963 12.3323L20.8146 12.4024L20.8147 12.4013L20.3963 12.3323ZM19.3389 18.6404L18.9207 18.5703L18.9205 18.5712L19.3389 18.6404ZM19.3386 18.6425L18.9202 18.5732L18.92 18.5744L19.3386 18.6425ZM18.2003 19.4862L18.2049 19.0621H18.2003L18.2003 19.4862ZM10.071 19.4862H9.64687C9.64687 19.7204 9.83674 19.9103 10.071 19.9103L10.071 19.4862ZM9.27593 12.0648H9.70001C9.70001 11.8306 9.51014 11.6407 9.27593 11.6407V12.0648ZM9.27593 19.4862V19.9103C9.51014 19.9103 9.70001 19.7204 9.70001 19.4862H9.27593ZM17.4448 10.3929L17.4405 9.96887L17.4448 10.3929ZM12.8536 5.04394C12.551 5.04394 12.2797 5.21204 12.137 5.47112L12.8799 5.8804C12.8787 5.88255 12.8708 5.8921 12.8536 5.8921V5.04394ZM15.1215 6.10805C14.5699 5.51117 13.7696 5.04394 12.8536 5.04394V5.8921C13.4748 5.8921 14.0631 6.21251 14.4986 6.68373L15.1215 6.10805ZM16.0602 8.35411C16.0602 7.51578 15.6696 6.70102 15.1215 6.10805L14.4986 6.68373C14.9333 7.15405 15.2121 7.77143 15.2121 8.35411H16.0602ZM16.0602 10.4115V8.35411H15.2121V10.4115H16.0602ZM19.5833 9.97109C19.5049 9.96296 19.3796 9.9503 19.2536 9.95027L19.2535 10.7984C19.3307 10.7985 19.4165 10.8065 19.4958 10.8147L19.5833 9.97109ZM19.6173 9.97535C19.606 9.97369 19.5946 9.97227 19.5833 9.97109L19.4958 10.8147C19.4953 10.8147 19.4947 10.8146 19.4941 10.8145L19.6173 9.97535ZM21.5981 12.5422C21.8171 11.2216 20.8224 10.1522 19.6173 9.97535L19.4941 10.8145C20.3155 10.9351 20.8892 11.6323 20.7613 12.4034L21.5981 12.5422ZM20.5408 18.8497L21.5979 12.5429L20.7615 12.4027L19.7043 18.7095L20.5408 18.8497ZM18.19 20.7348C19.2845 20.7455 20.3519 20.0068 20.5411 18.848L19.704 18.7113C19.5923 19.3953 18.9394 19.8939 18.1983 19.8867L18.19 20.7348ZM9.67344 20.7349H18.1942V19.8867H9.67344V20.7349ZM9.53171 20.7224C9.578 20.7306 9.62539 20.7349 9.67344 20.7349V19.8867C9.67542 19.8867 9.67766 19.8869 9.68002 19.8873L9.53171 20.7224ZM9.53829 20.7349C9.58634 20.7349 9.63373 20.7306 9.68002 20.7224L9.53171 19.8873C9.53407 19.8869 9.5363 19.8867 9.53829 19.8867V20.7349ZM7.28835 20.7349H9.53829V19.8867H7.28835V20.7349ZM4.8767 18.0679C4.8767 19.4443 5.86781 20.7349 7.28835 20.7349V19.8867C6.44671 19.8867 5.72486 19.0946 5.72486 18.0679H4.8767ZM4.8767 13.4831V18.0679H5.72486V13.4831H4.8767ZM7.28835 10.8161C5.86781 10.8161 4.8767 12.1067 4.8767 13.4831H5.72486C5.72486 12.4564 6.44671 11.6643 7.28835 11.6643V10.8161ZM9.44275 10.8161H7.28835V11.6643H9.44275V10.8161ZM12.137 5.47112L9.07131 11.0356L9.81419 11.4448L12.8799 5.8804L12.137 5.47112ZM10.4424 11.9666L13.4465 6.5139L12.7036 6.10462L9.69952 11.5574L10.4424 11.9666ZM13.0124 6.72869C13.3241 6.77525 13.6512 6.95837 13.9247 7.25436L14.5476 6.67868C14.1714 6.27162 13.678 5.97054 13.1377 5.88983L13.0124 6.72869ZM13.9247 7.25436C14.2509 7.60728 14.417 8.02937 14.417 8.35411H15.2652C15.2652 7.77449 14.9878 7.15494 14.5476 6.67868L13.9247 7.25436ZM14.417 8.35411V10.8279H15.2652V8.35411H14.417ZM14.417 10.8279C14.417 11.0462 14.5011 11.2585 14.6551 11.4167L15.2628 10.825C15.266 10.8284 15.2652 10.8297 15.2652 10.8279H14.417ZM14.6551 11.4167C14.8097 11.5755 15.0225 11.6665 15.2469 11.6642L15.2382 10.8161C15.2505 10.816 15.259 10.8211 15.2628 10.825L14.6551 11.4167ZM15.2469 11.6642L19.2579 11.623L19.2492 10.7749L15.2382 10.8161L15.2469 11.6642ZM19.2532 11.6231L19.255 11.6231L19.2557 10.7749L19.2539 10.7749L19.2532 11.6231ZM19.2544 11.6231C19.2858 11.6231 19.3328 11.6266 19.4086 11.6344L19.4953 10.7907C19.4197 10.7829 19.3347 10.7751 19.2563 10.7749L19.2544 11.6231ZM19.3881 11.6318C19.8534 11.7026 20.0145 12.0411 19.9779 12.2632L20.8147 12.4013C20.9384 11.6517 20.3845 10.9255 19.5158 10.7933L19.3881 11.6318ZM19.9781 12.2622L18.9207 18.5703L19.7572 18.7105L20.8146 12.4024L19.9781 12.2622ZM18.9205 18.5712L18.9202 18.5732L19.757 18.7117L19.7573 18.7097L18.9205 18.5712ZM18.92 18.5744C18.8853 18.7877 18.6301 19.0667 18.2049 19.0621L18.1957 19.9103C18.9856 19.9188 19.6467 19.3895 19.7572 18.7106L18.92 18.5744ZM10.495 19.4862V11.762H9.64687V19.4862H10.495ZM8.85184 12.0648V19.4862H9.70001V12.0648H8.85184ZM7.28835 12.4889H9.27593V11.6407H7.28835V12.4889ZM6.51989 13.4831C6.51989 12.8375 6.9542 12.4889 7.28835 12.4889V11.6407C6.38656 11.6407 5.67173 12.4748 5.67173 13.4831H6.51989ZM6.51989 18.0679V13.4831H5.67173V18.0679H6.51989ZM7.28835 19.0621C6.9542 19.0621 6.51989 18.7135 6.51989 18.0679H5.67173C5.67173 19.0761 6.38656 19.9103 7.28835 19.9103V19.0621ZM9.27593 19.0621H7.28835V19.9103H9.27593V19.0621ZM18.2003 19.0621L10.071 19.0621L10.071 19.9103L18.2003 19.9103L18.2003 19.0621ZM19.2492 9.95029L17.4405 9.96887L17.4492 10.817L19.2579 10.7984L19.2492 9.95029ZM17.4405 9.96887L15.6318 9.98744L15.6405 10.8356L17.4492 10.817L17.4405 9.96887Z" fill="white" mask="url(#path-2-outside-1_12_21856)"/>
</g>
<defs>
<filter id="filter0_d_12_21856" x="3.81649" y="5.04395" width="18.8722" height="18.8717" filterUnits="userSpaceOnUse" color-interpolation-filters="sRGB">
<feFlood flood-opacity="0" result="BackgroundImageFix"/>
<feColorMatrix in="SourceAlpha" type="matrix" values="0 0 0 0 0 0 0 0 0 0 0 0 0 0 0 0 0 0 127 0" result="hardAlpha"/>
<feOffset dy="2.12041"/>
<feGaussianBlur stdDeviation="0.530102"/>
<feComposite in2="hardAlpha" operator="out"/>
<feColorMatrix type="matrix" values="0 0 0 0 0 0 0 0 0 0 0 0 0 0 0 0 0 0 0.16 0"/>
<feBlend mode="normal" in2="BackgroundImageFix" result="effect1_dropShadow_12_21856"/>
<feBlend mode="normal" in="SourceGraphic" in2="effect1_dropShadow_12_21856" result="shape"/>
</filter>
</defs>
</svg>
